<svg width="64" height="64" viewBox="0 0 64 64" fill="none" xmlns="http://www.w3.org/2000/svg" role="img" aria-label="i-Reserva">
  <rect width="64" height="64" rx="18" fill="url(#markGradient)"/>
  <rect x="4" y="4" width="56" height="56" rx="15" stroke="white" stroke-opacity="0.28" stroke-width="2"/>
  <path d="M25.5 20.5C25.5 19.1 26.6 18 28 18H37C38.4 18 39.5 19.1 39.5 20.5V42.5C39.5 43.9 38.4 45 37 45H28C26.6 45 25.5 43.9 25.5 42.5V20.5Z" fill="white" fill-opacity="0.96"/>
  <path d="M30 23.5H35" stroke="#087F73" stroke-width="2" stroke-linecap="round"/>
  <path d="M32.5 31.5V39" stroke="#EF6F4D" stroke-width="4" stroke-linecap="round"/>
  <circle cx="32.5" cy="27.2" r="2.2" fill="#D69A2D"/>
  <path d="M44 18.5C48 22.2 50.5 27.5 50.5 33.2C50.5 39 48 44.2 44 48" stroke="white" stroke-width="3" stroke-linecap="round"/>
  <path d="M20 48C16 44.2 13.5 39 13.5 33.2C13.5 27.5 16 22.2 20 18.5" stroke="white" stroke-width="3" stroke-linecap="round"/>
  <defs>
    <linearGradient id="markGradient" x1="4" y1="4" x2="60" y2="60" gradientUnits="userSpaceOnUse">
      <stop stop-color="#EF6F4D"/>
      <stop offset="0.5" stop-color="#D69A2D"/>
      <stop offset="1" stop-color="#087F73"/>
    </linearGradient>
  </defs>
</svg>
