<svg width="214" height="54" viewBox="0 0 214 54" fill="none" xmlns="http://www.w3.org/2000/svg" role="img" aria-labelledby="title desc">
  <title id="title">i_Reserva</title>
  <desc id="desc">Logo do sistema i_Reserva</desc>
  <rect width="214" height="54" rx="16" fill="white"/>
  <rect x="1" y="1" width="212" height="52" rx="15" stroke="#087F73" stroke-opacity="0.12" stroke-width="2"/>
  <g filter="url(#shadow)">
    <rect x="13" y="10" width="34" height="34" rx="12" fill="url(#markGradient)"/>
  </g>
  <path d="M25.6 20.8C25.6 19.8 26.4 19 27.4 19H34.2C35.2 19 36 19.8 36 20.8V34.9C36 35.9 35.2 36.7 34.2 36.7H27.4C26.4 36.7 25.6 35.9 25.6 34.9V20.8Z" fill="white" fill-opacity="0.96"/>
  <path d="M29.2 23.2H32.4" stroke="#087F73" stroke-width="1.6" stroke-linecap="round"/>
  <path d="M30.8 28.4V33.4" stroke="#EF6F4D" stroke-width="2.8" stroke-linecap="round"/>
  <circle cx="30.8" cy="25.7" r="1.55" fill="#D69A2D"/>
  <path d="M39.2 17.4C42 20.2 43.8 24.1 43.8 28.4C43.8 32.8 42 36.7 39.2 39.5" stroke="white" stroke-width="2.2" stroke-linecap="round"/>
  <path d="M20.8 39.5C18 36.7 16.2 32.8 16.2 28.4C16.2 24.1 18 20.2 20.8 17.4" stroke="white" stroke-width="2.2" stroke-linecap="round"/>
  <text x="58" y="33.8" fill="#07534D" font-family="Inter, Segoe UI, Arial, sans-serif" font-size="22" font-weight="850" letter-spacing="0">i_Reserva</text>
  <path d="M59 40.5H144" stroke="url(#lineGradient)" stroke-width="3" stroke-linecap="round"/>
  <defs>
    <linearGradient id="markGradient" x1="15" y1="11" x2="45" y2="43" gradientUnits="userSpaceOnUse">
      <stop stop-color="#EF6F4D"/>
      <stop offset="0.48" stop-color="#D69A2D"/>
      <stop offset="1" stop-color="#087F73"/>
    </linearGradient>
    <linearGradient id="lineGradient" x1="59" y1="40.5" x2="144" y2="40.5" gradientUnits="userSpaceOnUse">
      <stop stop-color="#EF6F4D"/>
      <stop offset="0.55" stop-color="#D69A2D"/>
      <stop offset="1" stop-color="#087F73"/>
    </linearGradient>
    <filter id="shadow" x="7" y="7" width="46" height="46" filterUnits="userSpaceOnUse" color-interpolation-filters="sRGB">
      <feFlood flood-opacity="0" result="BackgroundImageFix"/>
      <feColorMatrix in="SourceAlpha" type="matrix" values="0 0 0 0 0 0 0 0 0 0 0 0 0 0 0 0 0 0 127 0" result="hardAlpha"/>
      <feOffset dy="3"/>
      <feGaussianBlur stdDeviation="3"/>
      <feComposite in2="hardAlpha" operator="out"/>
      <feColorMatrix type="matrix" values="0 0 0 0 0.062 0 0 0 0 0.125 0 0 0 0 0.114 0 0 0 0.18 0"/>
      <feBlend mode="normal" in2="BackgroundImageFix" result="effect1_dropShadow_1_1"/>
      <feBlend mode="normal" in="SourceGraphic" in2="effect1_dropShadow_1_1" result="shape"/>
    </filter>
  </defs>
</svg>
